<svg class="main-svg" xmlns="http://www.w3.org/2000/svg" xmlns:xlink="http://www.w3.org/1999/xlink" width="900" height="600" style="" viewBox="0 0 900 600"><rect x="0" y="0" width="900" height="600" style="fill: rgb(245, 246, 249); fill-opacity: 1;"/><defs id="defs-43b948"><g class="clips"><clipPath id="clip43b948xyplot" class="plotclip"><rect width="740" height="420"/></clipPath><clipPath class="axesclip" id="clip43b948x"><rect x="80" y="0" width="740" height="600"/></clipPath><clipPath class="axesclip" id="clip43b948y"><rect x="0" y="100" width="900" height="420"/></clipPath><clipPath class="axesclip" id="clip43b948xy"><rect x="80" y="100" width="740" height="420"/></clipPath></g><g class="gradients"/></defs><g class="bglayer"/><g class="layer-below"><g class="imagelayer"/><g class="shapelayer"/></g><g class="cartesianlayer"><g class="subplot xy"><g class="layer-subplot"><g class="shapelayer"/><g class="imagelayer"/></g><g class="gridlayer"><g class="x"><path class="xgrid crisp" transform="translate(153.47,0)" d="M0,100v420" style="stroke: rgb(225, 229, 237); stroke-opacity: 1; stroke-width: 1px;"/><path class="xgrid crisp" transform="translate(260.74,0)" d="M0,100v420" style="stroke: rgb(225, 229, 237); stroke-opacity: 1; stroke-width: 1px;"/><path class="xgrid crisp" transform="translate(368.01,0)" d="M0,100v420" style="stroke: rgb(225, 229, 237); stroke-opacity: 1; stroke-width: 1px;"/><path class="xgrid crisp" transform="translate(475.57,0)" d="M0,100v420" style="stroke: rgb(225, 229, 237); stroke-opacity: 1; stroke-width: 1px;"/><path class="xgrid crisp" transform="translate(582.8399999999999,0)" d="M0,100v420" style="stroke: rgb(225, 229, 237); stroke-opacity: 1; stroke-width: 1px;"/><path class="xgrid crisp" transform="translate(690.1,0)" d="M0,100v420" style="stroke: rgb(225, 229, 237); stroke-opacity: 1; stroke-width: 1px;"/><path class="xgrid crisp" transform="translate(797.37,0)" d="M0,100v420" style="stroke: rgb(225, 229, 237); stroke-opacity: 1; stroke-width: 1px;"/></g><g class="y"><path class="ygrid crisp" transform="translate(0,465.12)" d="M80,0h740" style="stroke: rgb(225, 229, 237); stroke-opacity: 1; stroke-width: 1px;"/><path class="ygrid crisp" transform="translate(0,410.24)" d="M80,0h740" style="stroke: rgb(225, 229, 237); stroke-opacity: 1; stroke-width: 1px;"/><path class="ygrid crisp" transform="translate(0,355.36)" d="M80,0h740" style="stroke: rgb(225, 229, 237); stroke-opacity: 1; stroke-width: 1px;"/><path class="ygrid crisp" transform="translate(0,300.48)" d="M80,0h740" style="stroke: rgb(225, 229, 237); stroke-opacity: 1; stroke-width: 1px;"/><path class="ygrid crisp" transform="translate(0,245.6)" d="M80,0h740" style="stroke: rgb(225, 229, 237); stroke-opacity: 1; stroke-width: 1px;"/><path class="ygrid crisp" transform="translate(0,190.72)" d="M80,0h740" style="stroke: rgb(225, 229, 237); stroke-opacity: 1; stroke-width: 1px;"/><path class="ygrid crisp" transform="translate(0,135.82999999999998)" d="M80,0h740" style="stroke: rgb(225, 229, 237); stroke-opacity: 1; stroke-width: 1px;"/></g></g><g class="zerolinelayer"><path class="yzl zl crisp" transform="translate(0,520)" d="M80,0h740" style="stroke: rgb(225, 229, 237); stroke-opacity: 1; stroke-width: 2px;"/></g><path class="xlines-below"/><path class="ylines-below"/><g class="overlines-below"/><g class="xaxislayer-below"/><g class="yaxislayer-below"/><g class="overaxes-below"/><g class="plot" transform="translate(80, 100)" clip-path="url('#clip43b948xyplot')"><g class="scatterlayer mlayer"><g class="trace scatter trace946d50" style="stroke-miterlimit: 2;"><g class="fills"><g><path class="js-fill" d="M740,420L0,420L0,420L9.4,419.45L10.87,419.45L29.09,418.66L29.39,418.5L32.92,418.15L33.21,418.14L77,417.57L77.88,417.29L84.34,417.14L84.64,417.13L97.57,416.12L99.04,415.86L100.51,415.5L100.8,415.42L111.09,414.91L111.38,414.65L119.61,413.9L120.49,413.89L135.77,412.95L136.07,412.42L137.83,412.3L141.36,412.2L148.71,411.17L149,410.97L255.39,409.68L255.97,409.43L276.84,408.14L277.13,407.74L278.9,406.94L279.19,406.73L281.54,406.14L282.42,405.25L284.48,404.46L284.77,404.21L324.15,403.3L324.45,402.01L332.97,401.66L335.03,401.65L357.07,401.1L359.42,400.56L366.77,399.81L367.06,399.71L368.24,399.41L370.59,399.41L380.29,397.97L381.46,397.97L389.98,397.43L390.28,397.43L405.85,396.18L406.44,396.17L431.42,395.12L431.72,394.92L449.05,392.03L449.35,392.02L459.34,390.65L459.63,390.22L466.39,388.47L466.69,386.74L468.75,384.54L469.04,384.48L469.63,382.72L469.92,380.39L472.27,376.99L472.57,376.45L473.74,373.39L474.03,372.4L476.39,369.73L476.68,369.59L477.86,368.54L478.15,368.17L480.21,365.78L480.5,365.64L481.38,365L481.68,364.83L482.85,363.84L483.15,363.12L485.5,362.38L485.79,361.52L487.55,360.09L487.85,359.97L489.9,355.87L490.2,354.13L491.37,349.37L491.67,348.77L496.08,341.63L496.37,340.98L498.43,339.2L498.72,338.33L500.19,336.78L500.48,334.91L503.13,327.96L503.42,327.93L506.07,321.96L506.36,321.16L508.42,315.99L508.71,315.66L509.89,313.84L510.18,313.15L510.77,312.17L511.06,311.43L512.83,309.28L513.12,309.11L516.06,305.3L516.35,305.13L517.82,300.56L518.12,299.28L518.71,298.49L519,297.35L520.76,292.12L521.06,291.94L528.11,280.34L528.4,279.69L532.52,271.98L532.81,271.72L534.28,268.21L534.58,267.12L536.04,263.37L536.34,262.6L538.4,258.76L538.69,258.1L541.33,252.31L541.63,252.17L549.27,243.67L549.56,243.05L551.91,240.86L552.21,240.66L553.38,239.74L553.68,239.53L554.85,238.8L555.15,238.7L566.9,227.92L567.2,227.62L571.02,223.51L571.31,222.68L573.37,220.69L573.66,220.56L577.48,214.51L577.78,213.71L578.66,212.55L578.95,211.59L580.42,208.8L580.71,208.48L583.07,205.33L583.36,204.88L584.54,201.19L584.83,201.03L587.18,195.98L587.47,195.86L592.76,187.28L593.06,186.11L594.53,180.37L594.82,180.18L598.94,165.72L599.23,165.55L599.82,165.03L600.11,164.68L605.11,146.22L605.4,145.97L610.98,136.47L611.28,136.39L614.22,132.42L614.51,131.86L615.98,127.82L616.27,126.12L620.39,120.24L620.68,119.91L623.33,114.83L623.62,114.07L625.97,109.88L626.27,108.66L628.03,105.92L628.32,105.7L629.79,103.55L630.09,103.5L630.38,103.32L630.68,102.2L633.91,95.92L634.2,95.7L635.38,93.72L635.67,92.83L636.55,91.8L636.85,91.42L638.32,90.04L638.61,89.99L640.37,87.56L640.67,87.54L642.72,85.1L643.02,85.03L645.37,82.62L645.66,81.87L650.95,75.11L651.25,74.68L653.6,71.63L653.89,71.39L655.66,68.72L655.95,68.41L657.42,67.63L657.71,67.22L665.06,60.23L665.35,60.14L666.24,59.26L666.53,58.8L677.99,50.68L678.28,50.21L679.75,49.49L680.05,49.43L685.04,45.97L685.34,45.88L686.22,45.21L686.51,44.84L691.8,42.67L692.1,42.6L695.04,41.93L695.33,41.84L703.56,38.28L703.85,37.9L705.03,36.35L705.32,35.77L711.79,30.8L712.08,30.79L713.26,30.31L713.55,29.89L715.61,29.18L715.9,29.15L718.84,28.35L719.13,28.29L724.72,26.08L725.01,26.08L727.36,24.92L727.66,24.64L740,21" style="fill: rgb(0, 250, 154); fill-opacity: 0.3; stroke-width: 0;"/></g></g><g class="errorbars"/><g class="lines"><path class="js-line" d="M0,420L9.4,419.45L10.87,419.45L29.09,418.66L29.39,418.5L32.92,418.15L33.21,418.14L77,417.57L77.88,417.29L84.34,417.14L84.64,417.13L97.57,416.12L99.04,415.86L100.51,415.5L100.8,415.42L111.09,414.91L111.38,414.65L119.61,413.9L120.49,413.89L135.77,412.95L136.07,412.42L137.83,412.3L141.36,412.2L148.71,411.17L149,410.97L255.39,409.68L255.97,409.43L276.84,408.14L277.13,407.74L278.9,406.94L279.19,406.73L281.54,406.14L282.42,405.25L284.48,404.46L284.77,404.21L324.15,403.3L324.45,402.01L332.97,401.66L335.03,401.65L357.07,401.1L359.42,400.56L366.77,399.81L367.06,399.71L368.24,399.41L370.59,399.41L380.29,397.97L381.46,397.97L389.98,397.43L390.28,397.43L405.85,396.18L406.44,396.17L431.42,395.12L431.72,394.92L449.05,392.03L449.35,392.02L459.34,390.65L459.63,390.22L466.39,388.47L466.69,386.74L468.75,384.54L469.04,384.48L469.63,382.72L469.92,380.39L472.27,376.99L472.57,376.45L473.74,373.39L474.03,372.4L476.39,369.73L476.68,369.59L477.86,368.54L478.15,368.17L480.21,365.78L480.5,365.64L481.38,365L481.68,364.83L482.85,363.84L483.15,363.12L485.5,362.38L485.79,361.52L487.55,360.09L487.85,359.97L489.9,355.87L490.2,354.13L491.37,349.37L491.67,348.77L496.08,341.63L496.37,340.98L498.43,339.2L498.72,338.33L500.19,336.78L500.48,334.91L503.13,327.96L503.42,327.93L506.07,321.96L506.36,321.16L508.42,315.99L508.71,315.66L509.89,313.84L510.18,313.15L510.77,312.17L511.06,311.43L512.83,309.28L513.12,309.11L516.06,305.3L516.35,305.13L517.82,300.56L518.12,299.28L518.71,298.49L519,297.35L520.76,292.12L521.06,291.94L528.11,280.34L528.4,279.69L532.52,271.98L532.81,271.72L534.28,268.21L534.58,267.12L536.04,263.37L536.34,262.6L538.4,258.76L538.69,258.1L541.33,252.31L541.63,252.17L549.27,243.67L549.56,243.05L551.91,240.86L552.21,240.66L553.38,239.74L553.68,239.53L554.85,238.8L555.15,238.7L566.9,227.92L567.2,227.62L571.02,223.51L571.31,222.68L573.37,220.69L573.66,220.56L577.48,214.51L577.78,213.71L578.66,212.55L578.95,211.59L580.42,208.8L580.71,208.48L583.07,205.33L583.36,204.88L584.54,201.19L584.83,201.03L587.18,195.98L587.47,195.86L592.76,187.28L593.06,186.11L594.53,180.37L594.82,180.18L598.94,165.72L599.23,165.55L599.82,165.03L600.11,164.68L605.11,146.22L605.4,145.97L610.98,136.47L611.28,136.39L614.22,132.42L614.51,131.86L615.98,127.82L616.27,126.12L620.39,120.24L620.68,119.91L623.33,114.83L623.62,114.07L625.97,109.88L626.27,108.66L628.03,105.92L628.32,105.7L629.79,103.55L630.09,103.5L630.38,103.32L630.68,102.2L633.91,95.92L634.2,95.7L635.38,93.72L635.67,92.83L636.55,91.8L636.85,91.42L638.32,90.04L638.61,89.99L640.37,87.56L640.67,87.54L642.72,85.1L643.02,85.03L645.37,82.62L645.66,81.87L650.95,75.11L651.25,74.68L653.6,71.63L653.89,71.39L655.66,68.72L655.95,68.41L657.42,67.63L657.71,67.22L665.06,60.23L665.35,60.14L666.24,59.26L666.53,58.8L677.99,50.68L678.28,50.21L679.75,49.49L680.05,49.43L685.04,45.97L685.34,45.88L686.22,45.21L686.51,44.84L691.8,42.67L692.1,42.6L695.04,41.93L695.33,41.84L703.56,38.28L703.85,37.9L705.03,36.35L705.32,35.77L711.79,30.8L712.08,30.79L713.26,30.31L713.55,29.89L715.61,29.18L715.9,29.15L718.84,28.35L719.13,28.29L724.72,26.08L725.01,26.08L727.36,24.92L727.66,24.64L740,21" style="vector-effect: non-scaling-stroke; fill: none; stroke: rgb(0, 250, 154); stroke-opacity: 1; stroke-width: 1.3px; opacity: 1;"/></g><g class="points"/><g class="text"/></g></g></g><g class="overplot"/><path class="xlines-above crisp" d="M0,0" style="fill: none;"/><path class="ylines-above crisp" d="M0,0" style="fill: none;"/><g class="overlines-above"/><g class="xaxislayer-above"><g class="xtick"><text text-anchor="middle" x="0" y="533" transform="translate(153.47,0)" style="font-family: 'Open Sans', verdana, arial, sans-serif; font-size: 12px; fill: rgb(77, 86, 99); fill-opacity: 1; white-space: pre;">2014</text></g><g class="xtick"><text text-anchor="middle" x="0" y="533" transform="translate(260.74,0)" style="font-family: 'Open Sans', verdana, arial, sans-serif; font-size: 12px; fill: rgb(77, 86, 99); fill-opacity: 1; white-space: pre;">2015</text></g><g class="xtick"><text text-anchor="middle" x="0" y="533" transform="translate(368.01,0)" style="font-family: 'Open Sans', verdana, arial, sans-serif; font-size: 12px; fill: rgb(77, 86, 99); fill-opacity: 1; white-space: pre;">2016</text></g><g class="xtick"><text text-anchor="middle" x="0" y="533" transform="translate(475.57,0)" style="font-family: 'Open Sans', verdana, arial, sans-serif; font-size: 12px; fill: rgb(77, 86, 99); fill-opacity: 1; white-space: pre;">2017</text></g><g class="xtick"><text text-anchor="middle" x="0" y="533" transform="translate(582.8399999999999,0)" style="font-family: 'Open Sans', verdana, arial, sans-serif; font-size: 12px; fill: rgb(77, 86, 99); fill-opacity: 1; white-space: pre;">2018</text></g><g class="xtick"><text text-anchor="middle" x="0" y="533" transform="translate(690.1,0)" style="font-family: 'Open Sans', verdana, arial, sans-serif; font-size: 12px; fill: rgb(77, 86, 99); fill-opacity: 1; white-space: pre;">2019</text></g><g class="xtick"><text text-anchor="middle" x="0" y="533" transform="translate(797.37,0)" style="font-family: 'Open Sans', verdana, arial, sans-serif; font-size: 12px; fill: rgb(77, 86, 99); fill-opacity: 1; white-space: pre;">2020</text></g></g><g class="yaxislayer-above"><g class="ytick"><text text-anchor="end" x="79" y="4.199999999999999" transform="translate(0,520)" style="font-family: 'Open Sans', verdana, arial, sans-serif; font-size: 12px; fill: rgb(77, 86, 99); fill-opacity: 1; white-space: pre;">0</text></g><g class="ytick"><text text-anchor="end" x="79" y="4.199999999999999" transform="translate(0,465.12)" style="font-family: 'Open Sans', verdana, arial, sans-serif; font-size: 12px; fill: rgb(77, 86, 99); fill-opacity: 1; white-space: pre;">20k</text></g><g class="ytick"><text text-anchor="end" x="79" y="4.199999999999999" transform="translate(0,410.24)" style="font-family: 'Open Sans', verdana, arial, sans-serif; font-size: 12px; fill: rgb(77, 86, 99); fill-opacity: 1; white-space: pre;">40k</text></g><g class="ytick"><text text-anchor="end" x="79" y="4.199999999999999" transform="translate(0,355.36)" style="font-family: 'Open Sans', verdana, arial, sans-serif; font-size: 12px; fill: rgb(77, 86, 99); fill-opacity: 1; white-space: pre;">60k</text></g><g class="ytick"><text text-anchor="end" x="79" y="4.199999999999999" transform="translate(0,300.48)" style="font-family: 'Open Sans', verdana, arial, sans-serif; font-size: 12px; fill: rgb(77, 86, 99); fill-opacity: 1; white-space: pre;">80k</text></g><g class="ytick"><text text-anchor="end" x="79" y="4.199999999999999" transform="translate(0,245.6)" style="font-family: 'Open Sans', verdana, arial, sans-serif; font-size: 12px; fill: rgb(77, 86, 99); fill-opacity: 1; white-space: pre;">100k</text></g><g class="ytick"><text text-anchor="end" x="79" y="4.199999999999999" transform="translate(0,190.72)" style="font-family: 'Open Sans', verdana, arial, sans-serif; font-size: 12px; fill: rgb(77, 86, 99); fill-opacity: 1; white-space: pre;">120k</text></g><g class="ytick"><text text-anchor="end" x="79" y="4.199999999999999" transform="translate(0,135.82999999999998)" style="font-family: 'Open Sans', verdana, arial, sans-serif; font-size: 12px; fill: rgb(77, 86, 99); fill-opacity: 1; white-space: pre;">140k</text></g></g><g class="overaxes-above"/></g></g><g class="polarlayer"/><g class="ternarylayer"/><g class="geolayer"/><g class="funnelarealayer"/><g class="pielayer"/><g class="treemaplayer"/><g class="sunburstlayer"/><g class="glimages"/><defs id="topdefs-43b948"><g class="clips"/></defs><g class="layer-above"><g class="imagelayer"/><g class="shapelayer"/></g><g class="infolayer"><g class="g-gtitle"><text class="gtitle" x="45" y="50" text-anchor="start" dy="0em" style="font-family: 'Open Sans', verdana, arial, sans-serif; font-size: 17px; fill: rgb(77, 86, 99); opacity: 1; font-weight: normal; white-space: pre;">Cumulative Messages Over Time</text></g><g class="g-xtitle"><text class="xtitle" x="450" y="561.8" text-anchor="middle" style="font-family: 'Open Sans', verdana, arial, sans-serif; font-size: 14px; fill: rgb(77, 86, 99); opacity: 1; font-weight: normal; white-space: pre;">Day</text></g><g class="g-ytitle"><text class="ytitle" transform="rotate(-90,27.309375000000003,310)" x="27.309375000000003" y="310" text-anchor="middle" style="font-family: 'Open Sans', verdana, arial, sans-serif; font-size: 14px; fill: rgb(77, 86, 99); opacity: 1; font-weight: normal; white-space: pre;">Frequency</text></g></g></svg>